<svg width="92" height="18" viewBox="0 0 92 18" fill="none" xmlns="http://www.w3.org/2000/svg">
<path d="M7.39062 4.57031C7.49479 4.51823 7.58073 4.49219 7.64844 4.49219C7.7526 4.49219 7.85156 4.53906 7.94531 4.63281C8.03906 4.72656 8.14062 4.88281 8.25 5.10156C8.38542 5.3724 8.45312 5.58854 8.45312 5.75C8.45312 5.92708 8.35938 6.0651 8.17188 6.16406L3.60156 8.44531L8.17188 10.7266C8.35938 10.8255 8.45312 10.9635 8.45312 11.1406C8.45312 11.3021 8.38542 11.5182 8.25 11.7891C8.14062 12.0078 8.03906 12.1641 7.94531 12.2578C7.85156 12.3516 7.7526 12.3984 7.64844 12.3984C7.58073 12.3984 7.49479 12.3724 7.39062 12.3203L1.29688 9.17969C1.16667 9.11198 1.07292 9.02604 1.01562 8.92188C0.963542 8.81771 0.9375 8.65885 0.9375 8.44531C0.9375 8.23177 0.963542 8.07292 1.01562 7.96875C1.07292 7.86458 1.16667 7.77865 1.29688 7.71094L7.39062 4.57031Z" fill="#666666"/>
<path d="M16.6719 5.60938C17.0052 5.60938 17.2422 5.64844 17.3828 5.72656C17.5234 5.79948 17.5938 5.92448 17.5938 6.10156V7.75C17.5938 7.92708 17.5365 8.05469 17.4219 8.13281C17.3125 8.20573 17.1302 8.24219 16.875 8.24219C16.599 8.24219 16.4089 8.1875 16.3047 8.07812C15.9974 7.75 15.6458 7.51823 15.25 7.38281C14.8542 7.24219 14.3958 7.17188 13.875 7.17188C13.5677 7.17188 13.3255 7.22656 13.1484 7.33594C12.9766 7.44531 12.8906 7.59115 12.8906 7.77344C12.8906 7.99219 13.0833 8.14844 13.4688 8.24219C13.6719 8.29427 14.0182 8.34375 14.5078 8.39062C14.9922 8.44792 15.3932 8.50521 15.7109 8.5625C16.0339 8.61979 16.3385 8.70573 16.625 8.82031C17.0417 8.99219 17.3672 9.23177 17.6016 9.53906C17.8359 9.84635 17.9531 10.2526 17.9531 10.7578C17.9531 11.2526 17.8307 11.6823 17.5859 12.0469C17.3464 12.4062 16.9922 12.6849 16.5234 12.8828C16.0599 13.0755 15.5 13.1719 14.8438 13.1719C14.1198 13.1719 13.4479 12.987 12.8281 12.6172V12.6797C12.8281 12.8568 12.7526 12.9818 12.6016 13.0547C12.4505 13.1328 12.2083 13.1719 11.875 13.1719C11.5417 13.1719 11.3047 13.1328 11.1641 13.0547C11.0234 12.9818 10.9531 12.8568 10.9531 12.6797V10.9375C10.9531 10.7656 11.013 10.6406 11.1328 10.5625C11.2578 10.4844 11.4479 10.4453 11.7031 10.4453C12.0208 10.4453 12.237 10.5182 12.3516 10.6641C12.612 10.9922 12.9453 11.2318 13.3516 11.3828C13.7578 11.5339 14.2031 11.6094 14.6875 11.6094C15.5208 11.6094 15.9375 11.3932 15.9375 10.9609C15.9375 10.8307 15.8776 10.7266 15.7578 10.6484C15.6432 10.5703 15.4714 10.5052 15.2422 10.4531C15.112 10.4271 14.8099 10.3802 14.3359 10.3125C13.8099 10.25 13.3568 10.1797 12.9766 10.1016C12.6016 10.0182 12.2604 9.89062 11.9531 9.71875C11.2344 9.32292 10.875 8.69792 10.875 7.84375C10.875 7.39062 10.9974 6.99479 11.2422 6.65625C11.487 6.31771 11.8229 6.0599 12.25 5.88281C12.6823 5.70052 13.1667 5.60938 13.7031 5.60938C14.4896 5.60938 15.1875 5.79948 15.7969 6.17969V6.10156C15.7969 5.92448 15.8594 5.79948 15.9844 5.72656C16.1146 5.64844 16.3438 5.60938 16.6719 5.60938Z" fill="#666666"/>
<path d="M26.6484 5.60938C26.9714 5.60938 27.1927 5.64583 27.3125 5.71875C27.4323 5.79167 27.4922 5.91927 27.4922 6.10156V8.60938C27.4922 8.78646 27.4115 8.91406 27.25 8.99219C27.0938 9.0651 26.8307 9.10156 26.4609 9.10156C26.2161 9.10156 26.026 9.08594 25.8906 9.05469C25.7604 9.01823 25.6693 8.96615 25.6172 8.89844C25.5651 8.83073 25.5391 8.73438 25.5391 8.60938C25.5391 8.39062 25.4844 8.1875 25.375 8C25.2708 7.8125 25.112 7.66406 24.8984 7.55469C24.6901 7.4401 24.4375 7.38281 24.1406 7.38281C23.7656 7.38281 23.4375 7.46615 23.1562 7.63281C22.875 7.79427 22.6562 8.02865 22.5 8.33594C22.349 8.63802 22.2734 8.98958 22.2734 9.39062C22.2734 9.79167 22.349 10.1458 22.5 10.4531C22.6562 10.7552 22.875 10.9896 23.1562 11.1562C23.4375 11.3177 23.7656 11.3984 24.1406 11.3984C24.5417 11.3984 24.9505 11.3333 25.3672 11.2031C25.7891 11.0729 26.1979 10.8932 26.5938 10.6641C26.6875 10.612 26.7734 10.5859 26.8516 10.5859C27.0859 10.5859 27.2917 10.7917 27.4688 11.2031C27.5625 11.4271 27.6094 11.6172 27.6094 11.7734C27.6094 12.0078 27.4974 12.1875 27.2734 12.3125C26.7891 12.5833 26.2786 12.7943 25.7422 12.9453C25.2109 13.0964 24.6771 13.1719 24.1406 13.1719C23.349 13.1719 22.6536 13.0104 22.0547 12.6875C21.4557 12.3646 20.9922 11.9167 20.6641 11.3438C20.3411 10.7708 20.1797 10.1198 20.1797 9.39062C20.1797 8.66146 20.3438 8.01042 20.6719 7.4375C21 6.85938 21.4453 6.41146 22.0078 6.09375C22.5755 5.77083 23.2083 5.60938 23.9062 5.60938C24.75 5.60938 25.3464 5.91406 25.6953 6.52344V6.10156C25.6953 5.92448 25.7708 5.79948 25.9219 5.72656C26.0729 5.64844 26.3151 5.60938 26.6484 5.60938Z" fill="#666666"/>
<path d="M36.2422 5.60938C36.5651 5.60938 36.7865 5.64583 36.9062 5.71875C37.026 5.79167 37.0859 5.91927 37.0859 6.10156V8.60938C37.0859 8.78646 37.0052 8.91406 36.8438 8.99219C36.6875 9.0651 36.4245 9.10156 36.0547 9.10156C35.8099 9.10156 35.6198 9.08594 35.4844 9.05469C35.3542 9.01823 35.263 8.96615 35.2109 8.89844C35.1589 8.83073 35.1328 8.73438 35.1328 8.60938C35.1328 8.39062 35.0781 8.1875 34.9688 8C34.8646 7.8125 34.7057 7.66406 34.4922 7.55469C34.2839 7.4401 34.0312 7.38281 33.7344 7.38281C33.3594 7.38281 33.0312 7.46615 32.75 7.63281C32.4688 7.79427 32.25 8.02865 32.0938 8.33594C31.9427 8.63802 31.8672 8.98958 31.8672 9.39062C31.8672 9.79167 31.9427 10.1458 32.0938 10.4531C32.25 10.7552 32.4688 10.9896 32.75 11.1562C33.0312 11.3177 33.3594 11.3984 33.7344 11.3984C34.1354 11.3984 34.5443 11.3333 34.9609 11.2031C35.3828 11.0729 35.7917 10.8932 36.1875 10.6641C36.2812 10.612 36.3672 10.5859 36.4453 10.5859C36.6797 10.5859 36.8854 10.7917 37.0625 11.2031C37.1562 11.4271 37.2031 11.6172 37.2031 11.7734C37.2031 12.0078 37.0911 12.1875 36.8672 12.3125C36.3828 12.5833 35.8724 12.7943 35.3359 12.9453C34.8047 13.0964 34.2708 13.1719 33.7344 13.1719C32.9427 13.1719 32.2474 13.0104 31.6484 12.6875C31.0495 12.3646 30.5859 11.9167 30.2578 11.3438C29.9349 10.7708 29.7734 10.1198 29.7734 9.39062C29.7734 8.66146 29.9375 8.01042 30.2656 7.4375C30.5938 6.85938 31.0391 6.41146 31.6016 6.09375C32.1693 5.77083 32.8021 5.60938 33.5 5.60938C34.3438 5.60938 34.9401 5.91406 35.2891 6.52344V6.10156C35.2891 5.92448 35.3646 5.79948 35.5156 5.72656C35.6667 5.64844 35.9089 5.60938 36.2422 5.60938Z" fill="#666666"/>
<path d="M52.7656 3.55469C53.4323 3.55469 54.0156 3.75521 54.5156 4.15625C55.0208 4.55208 55.4089 5.11458 55.6797 5.84375C55.9557 6.56771 56.0938 7.40885 56.0938 8.36719C56.0938 9.32552 55.9557 10.1667 55.6797 10.8906C55.4089 11.6146 55.0234 12.1771 54.5234 12.5781C54.0234 12.974 53.4375 13.1719 52.7656 13.1719C52.0938 13.1719 51.5078 12.974 51.0078 12.5781C50.5078 12.1771 50.1198 11.6146 49.8438 10.8906C49.5729 10.1667 49.4375 9.32552 49.4375 8.36719C49.4375 7.40885 49.5729 6.56771 49.8438 5.84375C50.1198 5.11458 50.5078 4.55208 51.0078 4.15625C51.513 3.75521 52.099 3.55469 52.7656 3.55469ZM52.7656 4.71094C52.3542 4.71094 51.9896 4.85677 51.6719 5.14844C51.3594 5.4349 51.1146 5.85417 50.9375 6.40625C50.7604 6.95312 50.6719 7.60677 50.6719 8.36719C50.6719 9.1276 50.7604 9.78385 50.9375 10.3359C51.1146 10.8828 51.3594 11.2995 51.6719 11.5859C51.9896 11.8724 52.3542 12.0156 52.7656 12.0156C53.1771 12.0156 53.5391 11.8724 53.8516 11.5859C54.1693 11.2995 54.4167 10.8828 54.5938 10.3359C54.7708 9.78385 54.8594 9.1276 54.8594 8.36719C54.8594 7.60677 54.7708 6.95312 54.5938 6.40625C54.4167 5.85417 54.1693 5.4349 53.8516 5.14844C53.5391 4.85677 53.1771 4.71094 52.7656 4.71094Z" fill="#666666"/>
<path d="M62.3594 10.6562C62.7344 10.6562 63.0026 10.6953 63.1641 10.7734C63.3307 10.8464 63.4141 10.9714 63.4141 11.1484V12.5859C63.4141 12.763 63.3307 12.8906 63.1641 12.9688C63.0026 13.0417 62.7344 13.0781 62.3594 13.0781C61.9844 13.0781 61.7135 13.0417 61.5469 12.9688C61.3854 12.8906 61.3047 12.763 61.3047 12.5859V11.1484C61.3047 10.9714 61.3854 10.8464 61.5469 10.7734C61.7135 10.6953 61.9844 10.6562 62.3594 10.6562Z" fill="#666666"/>
<path d="M74.7656 11.9375C74.9427 11.9375 75.0677 11.9792 75.1406 12.0625C75.2188 12.1406 75.2578 12.276 75.2578 12.4688C75.2578 12.6615 75.2188 12.7995 75.1406 12.8828C75.0677 12.9609 74.9427 13 74.7656 13H69.5C69.3229 13 69.1953 12.9609 69.1172 12.8828C69.0443 12.7995 69.0078 12.6615 69.0078 12.4688C69.0078 12.276 69.0443 12.1406 69.1172 12.0625C69.1953 11.9792 69.3229 11.9375 69.5 11.9375H71.6016V5.23438L69.6562 6.44531C69.5677 6.4974 69.487 6.52344 69.4141 6.52344C69.2474 6.52344 69.1042 6.41667 68.9844 6.20312C68.9115 6.07812 68.875 5.95833 68.875 5.84375C68.875 5.66667 68.9557 5.53125 69.1172 5.4375L72.0625 3.625C72.1667 3.5625 72.2708 3.53125 72.375 3.53125C72.4896 3.53125 72.5833 3.57031 72.6562 3.64844C72.7344 3.72135 72.7734 3.82552 72.7734 3.96094V11.9375H74.7656Z" fill="#666666"/>
<path d="M83.8672 2.07031C84.2161 2.07031 84.5078 2.1276 84.7422 2.24219C84.9818 2.35677 85.1016 2.5026 85.1016 2.67969C85.1016 2.73698 85.0911 2.78906 85.0703 2.83594L79.8672 15.4766C79.7734 15.7005 79.5599 15.8125 79.2266 15.8125C78.8776 15.8125 78.5833 15.7552 78.3438 15.6406C78.1094 15.526 77.9922 15.3802 77.9922 15.2031C77.9922 15.1458 78.0026 15.0938 78.0234 15.0469L83.2266 2.40625C83.3203 2.18229 83.5339 2.07031 83.8672 2.07031Z" fill="#666666"/>
<path d="M90.6406 7.71094C90.7708 7.77865 90.862 7.86458 90.9141 7.96875C90.9714 8.07292 91 8.23177 91 8.44531C91 8.65885 90.9714 8.81771 90.9141 8.92188C90.862 9.02604 90.7708 9.11198 90.6406 9.17969L84.5469 12.3203C84.4427 12.3724 84.3568 12.3984 84.2891 12.3984C84.1849 12.3984 84.0859 12.3516 83.9922 12.2578C83.8984 12.1641 83.7969 12.0078 83.6875 11.7891C83.5521 11.5182 83.4844 11.3021 83.4844 11.1406C83.4844 10.9635 83.5781 10.8255 83.7656 10.7266L88.3359 8.44531L83.7656 6.16406C83.5781 6.0651 83.4844 5.92708 83.4844 5.75C83.4844 5.58854 83.5521 5.3724 83.6875 5.10156C83.7969 4.88281 83.8984 4.72656 83.9922 4.63281C84.0859 4.53906 84.1849 4.49219 84.2891 4.49219C84.3568 4.49219 84.4427 4.51823 84.5469 4.57031L90.6406 7.71094Z" fill="#666666"/>
</svg>
